# Banana low-poly model for Tabletop Simulator
# Generated for use with Kibo, Uktabi Prince
o banana_collider
v -0.101984 0.058590 0.000000
v -0.104647 0.056726 0.003897
v -0.108742 0.053858 0.004763
v -0.110176 0.052854 0.000000
v -0.108742 0.053858 -0.004763
v -0.104647 0.056726 -0.003897
v -0.063301 0.044972 0.000000
v -0.071769 0.033598 0.017003
v -0.084795 0.016100 0.020781
v -0.089355 0.009976 0.000000
v -0.084795 0.016100 -0.020781
v -0.071769 0.033598 -0.017003
v -0.032446 0.032084 0.000000
v -0.037436 0.017024 0.019024
v -0.045113 -0.006144 0.023251
v -0.047800 -0.014253 0.000000
v -0.045113 -0.006144 -0.023251
v -0.037436 0.017024 -0.019024
v 0.000000 0.029700 0.000000
v 0.000000 0.012150 0.021044
v 0.000000 -0.014850 0.025721
v 0.000000 -0.024300 0.000000
v 0.000000 -0.014850 -0.025721
v 0.000000 0.012150 -0.021044
v 0.032535 0.031815 0.000000
v 0.037473 0.016914 0.018823
v 0.045069 -0.006010 0.023006
v 0.047727 -0.014033 0.000000
v 0.045069 -0.006010 -0.023006
v 0.037473 0.016914 -0.018823
v 0.067383 0.039488 0.000000
v 0.073439 0.031355 0.012159
v 0.082754 0.018842 0.014861
v 0.086015 0.014462 0.000000
v 0.082754 0.018842 -0.014861
v 0.073439 0.031355 -0.012159
v 0.105273 0.056287 0.000000
v 0.105992 0.055784 0.001052
v 0.107098 0.055009 0.001286
v 0.107485 0.054738 0.000000
v 0.107098 0.055009 -0.001286
v 0.105992 0.055784 -0.001052
v -0.106490 0.055435 0.000000
v 0.106490 0.055435 0.000000
vt 0.000000 0.000000
vt 0.000000 0.166667
vt 0.000000 0.333333
vt 0.000000 0.500000
vt 0.000000 0.666667
vt 0.000000 0.833333
vt 0.166667 0.000000
vt 0.166667 0.166667
vt 0.166667 0.333333
vt 0.166667 0.500000
vt 0.166667 0.666667
vt 0.166667 0.833333
vt 0.333333 0.000000
vt 0.333333 0.166667
vt 0.333333 0.333333
vt 0.333333 0.500000
vt 0.333333 0.666667
vt 0.333333 0.833333
vt 0.500000 0.000000
vt 0.500000 0.166667
vt 0.500000 0.333333
vt 0.500000 0.500000
vt 0.500000 0.666667
vt 0.500000 0.833333
vt 0.666667 0.000000
vt 0.666667 0.166667
vt 0.666667 0.333333
vt 0.666667 0.500000
vt 0.666667 0.666667
vt 0.666667 0.833333
vt 0.833333 0.000000
vt 0.833333 0.166667
vt 0.833333 0.333333
vt 0.833333 0.500000
vt 0.833333 0.666667
vt 0.833333 0.833333
vt 1.000000 0.000000
vt 1.000000 0.166667
vt 1.000000 0.333333
vt 1.000000 0.500000
vt 1.000000 0.666667
vt 1.000000 0.833333
vt 0.000000 0.500000
vt 1.000000 0.500000
vn 0.819152 0.573576 0.000000
vn 0.409576 0.286788 0.866025
vn -0.409576 -0.286788 0.866025
vn -0.819152 -0.573576 0.000000
vn -0.409576 -0.286788 -0.866025
vn 0.409576 0.286788 -0.866025
vn 0.597159 0.802123 0.000000
vn 0.298579 0.401062 0.866025
vn -0.298579 -0.401062 0.866025
vn -0.597159 -0.802123 0.000000
vn -0.298579 -0.401062 -0.866025
vn 0.298579 0.401062 -0.866025
vn 0.314545 0.949243 0.000000
vn 0.157272 0.474621 0.866025
vn -0.157272 -0.474621 0.866025
vn -0.314545 -0.949243 0.000000
vn -0.157272 -0.474621 -0.866025
vn 0.157272 0.474621 -0.866025
vn 0.000000 1.000000 0.000000
vn 0.000000 0.500000 0.866025
vn 0.000000 -0.500000 0.866025
vn 0.000000 -1.000000 0.000000
vn 0.000000 -0.500000 -0.866025
vn -0.000000 0.500000 -0.866025
vn -0.314545 0.949243 0.000000
vn -0.157272 0.474621 0.866025
vn 0.157272 -0.474621 0.866025
vn 0.314545 -0.949243 0.000000
vn 0.157272 -0.474621 -0.866025
vn -0.157272 0.474621 -0.866025
vn -0.597159 0.802123 0.000000
vn -0.298579 0.401062 0.866025
vn 0.298579 -0.401062 0.866025
vn 0.597159 -0.802123 0.000000
vn 0.298579 -0.401062 -0.866025
vn -0.298579 0.401062 -0.866025
vn -0.819152 0.573576 0.000000
vn -0.409576 0.286788 0.866025
vn 0.409576 -0.286788 0.866025
vn 0.819152 -0.573576 0.000000
vn 0.409576 -0.286788 -0.866025
vn -0.409576 0.286788 -0.866025
vn -1.000000 0.000000 0.000000
vn 1.000000 0.000000 0.000000
s 1
f 1/1/1 2/2/2 8/8/8
f 1/1/1 8/8/8 7/7/7
f 2/2/2 3/3/3 9/9/9
f 2/2/2 9/9/9 8/8/8
f 3/3/3 4/4/4 10/10/10
f 3/3/3 10/10/10 9/9/9
f 4/4/4 5/5/5 11/11/11
f 4/4/4 11/11/11 10/10/10
f 5/5/5 6/6/6 12/12/12
f 5/5/5 12/12/12 11/11/11
f 6/6/6 1/1/1 7/7/7
f 6/6/6 7/7/7 12/12/12
f 7/7/7 8/8/8 14/14/14
f 7/7/7 14/14/14 13/13/13
f 8/8/8 9/9/9 15/15/15
f 8/8/8 15/15/15 14/14/14
f 9/9/9 10/10/10 16/16/16
f 9/9/9 16/16/16 15/15/15
f 10/10/10 11/11/11 17/17/17
f 10/10/10 17/17/17 16/16/16
f 11/11/11 12/12/12 18/18/18
f 11/11/11 18/18/18 17/17/17
f 12/12/12 7/7/7 13/13/13
f 12/12/12 13/13/13 18/18/18
f 13/13/13 14/14/14 20/20/20
f 13/13/13 20/20/20 19/19/19
f 14/14/14 15/15/15 21/21/21
f 14/14/14 21/21/21 20/20/20
f 15/15/15 16/16/16 22/22/22
f 15/15/15 22/22/22 21/21/21
f 16/16/16 17/17/17 23/23/23
f 16/16/16 23/23/23 22/22/22
f 17/17/17 18/18/18 24/24/24
f 17/17/17 24/24/24 23/23/23
f 18/18/18 13/13/13 19/19/19
f 18/18/18 19/19/19 24/24/24
f 19/19/19 20/20/20 26/26/26
f 19/19/19 26/26/26 25/25/25
f 20/20/20 21/21/21 27/27/27
f 20/20/20 27/27/27 26/26/26
f 21/21/21 22/22/22 28/28/28
f 21/21/21 28/28/28 27/27/27
f 22/22/22 23/23/23 29/29/29
f 22/22/22 29/29/29 28/28/28
f 23/23/23 24/24/24 30/30/30
f 23/23/23 30/30/30 29/29/29
f 24/24/24 19/19/19 25/25/25
f 24/24/24 25/25/25 30/30/30
f 25/25/25 26/26/26 32/32/32
f 25/25/25 32/32/32 31/31/31
f 26/26/26 27/27/27 33/33/33
f 26/26/26 33/33/33 32/32/32
f 27/27/27 28/28/28 34/34/34
f 27/27/27 34/34/34 33/33/33
f 28/28/28 29/29/29 35/35/35
f 28/28/28 35/35/35 34/34/34
f 29/29/29 30/30/30 36/36/36
f 29/29/29 36/36/36 35/35/35
f 30/30/30 25/25/25 31/31/31
f 30/30/30 31/31/31 36/36/36
f 31/31/31 32/32/32 38/38/38
f 31/31/31 38/38/38 37/37/37
f 32/32/32 33/33/33 39/39/39
f 32/32/32 39/39/39 38/38/38
f 33/33/33 34/34/34 40/40/40
f 33/33/33 40/40/40 39/39/39
f 34/34/34 35/35/35 41/41/41
f 34/34/34 41/41/41 40/40/40
f 35/35/35 36/36/36 42/42/42
f 35/35/35 42/42/42 41/41/41
f 36/36/36 31/31/31 37/37/37
f 36/36/36 37/37/37 42/42/42
f 43/43/43 2/2/2 1/1/1
f 43/43/43 3/3/3 2/2/2
f 43/43/43 4/4/4 3/3/3
f 43/43/43 5/5/5 4/4/4
f 43/43/43 6/6/6 5/5/5
f 43/43/43 1/1/1 6/6/6
f 37/37/37 38/38/38 44/44/44
f 38/38/38 39/39/39 44/44/44
f 39/39/39 40/40/40 44/44/44
f 40/40/40 41/41/41 44/44/44
f 41/41/41 42/42/42 44/44/44
f 42/42/42 37/37/37 44/44/44
