# Banana low-poly model for Tabletop Simulator
# Generated for use with Kibo, Uktabi Prince
o banana
v -0.101984 0.058590 0.000000
v -0.102943 0.057919 0.002500
v -0.104647 0.056726 0.003897
v -0.106490 0.055435 0.005000
v -0.108742 0.053858 0.004763
v -0.110037 0.052951 0.002500
v -0.110176 0.052854 0.000000
v -0.110037 0.052951 -0.002500
v -0.108742 0.053858 -0.004763
v -0.106490 0.055435 -0.005000
v -0.104647 0.056726 -0.003897
v -0.102943 0.057919 -0.002500
v -0.080258 0.058052 0.000000
v -0.083776 0.054898 0.010097
v -0.090032 0.049290 0.015740
v -0.096798 0.043224 0.020194
v -0.105069 0.035810 0.019238
v -0.109821 0.031550 0.010097
v -0.110332 0.031092 0.000000
v -0.109821 0.031550 -0.010097
v -0.105069 0.035810 -0.019238
v -0.096798 0.043224 -0.020194
v -0.090032 0.049290 -0.015740
v -0.083776 0.054898 -0.010097
v -0.070363 0.049766 0.000000
v -0.073629 0.046043 0.010583
v -0.079435 0.039422 0.016498
v -0.085715 0.032261 0.021167
v -0.093391 0.023508 0.020164
v -0.097801 0.018479 0.010583
v -0.098275 0.017938 0.000000
v -0.097801 0.018479 -0.010583
v -0.093391 0.023508 -0.020164
v -0.085715 0.032261 -0.021167
v -0.079435 0.039422 -0.016498
v -0.073629 0.046043 -0.010583
v -0.059649 0.042803 0.000000
v -0.062574 0.038528 0.011069
v -0.067774 0.030926 0.017256
v -0.073399 0.022703 0.022139
v -0.080274 0.012653 0.021090
v -0.084224 0.006879 0.011069
v -0.084649 0.006258 0.000000
v -0.084224 0.006879 -0.011069
v -0.080274 0.012653 -0.021090
v -0.073399 0.022703 -0.022139
v -0.067774 0.030926 -0.017256
v -0.062574 0.038528 -0.011069
v -0.048289 0.037238 0.000000
v -0.050786 0.032442 0.011556
v -0.055225 0.023914 0.018013
v -0.060027 0.014689 0.023111
v -0.065897 0.003414 0.022016
v -0.069269 -0.003065 0.011556
v -0.069632 -0.003761 0.000000
v -0.069269 -0.003065 -0.011556
v -0.065897 0.003414 -0.022016
v -0.060027 0.014689 -0.023111
v -0.055225 0.023914 -0.018013
v -0.050786 0.032442 -0.011556
v -0.036461 0.033126 0.000000
v -0.038446 0.027852 0.012042
v -0.041975 0.018475 0.018771
v -0.045793 0.008332 0.024083
v -0.050458 -0.004065 0.022942
v -0.053139 -0.011188 0.012042
v -0.053428 -0.011954 0.000000
v -0.053139 -0.011188 -0.012042
v -0.050458 -0.004065 -0.022942
v -0.045793 0.008332 -0.024083
v -0.041975 0.018475 -0.018771
v -0.038446 0.027852 -0.012042
v -0.024348 0.030497 0.000000
v -0.025742 0.024802 0.012528
v -0.028219 0.014677 0.019529
v -0.030899 0.003726 0.025056
v -0.034175 -0.009660 0.023869
v -0.036057 -0.017351 0.012528
v -0.036259 -0.018178 0.000000
v -0.036057 -0.017351 -0.012528
v -0.034175 -0.009660 -0.023869
v -0.030899 0.003726 -0.025056
v -0.028219 0.014677 -0.019529
v -0.025742 0.024802 -0.012528
v -0.012134 0.029359 0.000000
v -0.012863 0.023313 0.013014
v -0.014159 0.012563 0.020287
v -0.015561 0.000935 0.026028
v -0.017275 -0.013278 0.024795
v -0.018260 -0.021444 0.013014
v -0.018366 -0.022322 0.000000
v -0.018260 -0.021444 -0.013014
v -0.017275 -0.013278 -0.024795
v -0.015561 0.000935 -0.026028
v -0.014159 0.012563 -0.020287
v -0.012863 0.023313 -0.013014
v 0.000000 0.029700 0.000000
v 0.000000 0.023383 0.013500
v 0.000000 0.012150 0.021044
v 0.000000 0.000000 0.027000
v 0.000000 -0.014850 0.025721
v 0.000000 -0.023383 0.013500
v 0.000000 -0.024300 0.000000
v 0.000000 -0.023383 -0.013500
v 0.000000 -0.014850 -0.025721
v 0.000000 -0.000000 -0.027000
v 0.000000 0.012150 -0.021044
v 0.000000 0.023383 -0.013500
v 0.012059 0.029984 0.000000
v 0.012804 0.023805 0.013300
v 0.014129 0.012818 0.020732
v 0.015561 0.000935 0.026599
v 0.017313 -0.013590 0.025339
v 0.018319 -0.021935 0.013300
v 0.018427 -0.022832 0.000000
v 0.018319 -0.021935 -0.013300
v 0.017313 -0.013590 -0.025339
v 0.015561 0.000935 -0.026599
v 0.014129 0.012818 -0.020732
v 0.012804 0.023805 -0.013300
v 0.024259 0.030861 0.000000
v 0.025671 0.025090 0.012698
v 0.028183 0.014827 0.019795
v 0.030899 0.003726 0.025397
v 0.034219 -0.009842 0.024194
v 0.036127 -0.017638 0.012698
v 0.036332 -0.018477 0.000000
v 0.036127 -0.017638 -0.012698
v 0.034219 -0.009842 -0.024194
v 0.030899 0.003726 -0.025397
v 0.028183 0.014827 -0.019795
v 0.025671 0.025090 -0.012698
v 0.036728 0.032415 0.000000
v 0.038656 0.027293 0.011696
v 0.042084 0.018184 0.018233
v 0.045793 0.008332 0.023393
v 0.050325 -0.003709 0.022285
v 0.052929 -0.010628 0.011696
v 0.053209 -0.011372 0.000000
v 0.052929 -0.010628 -0.011696
v 0.050325 -0.003709 -0.022285
v 0.045793 0.008332 -0.023393
v 0.042084 0.018184 -0.018233
v 0.038656 0.027293 -0.011696
v 0.049570 0.034776 0.000000
v 0.051795 0.030503 0.010294
v 0.055750 0.022906 0.016046
v 0.060027 0.014689 0.020587
v 0.065256 0.004645 0.019612
v 0.068260 -0.001126 0.010294
v 0.068583 -0.001747 0.000000
v 0.068260 -0.001126 -0.010294
v 0.065256 0.004645 -0.019612
v 0.060027 0.014689 -0.020587
v 0.055750 0.022906 -0.016046
v 0.051795 0.030503 -0.010294
v 0.062853 0.038120 0.000000
v 0.065096 0.034841 0.008490
v 0.069085 0.029010 0.013235
v 0.073399 0.022703 0.016980
v 0.078672 0.014995 0.016176
v 0.081702 0.010566 0.008490
v 0.082027 0.010090 0.000000
v 0.081702 0.010566 -0.008490
v 0.078672 0.014995 -0.016176
v 0.073399 0.022703 -0.016980
v 0.069085 0.029010 -0.013235
v 0.065096 0.034841 -0.008490
v 0.076597 0.042658 0.000000
v 0.078536 0.040447 0.006286
v 0.081985 0.036514 0.009799
v 0.085715 0.032261 0.012572
v 0.090274 0.027062 0.011976
v 0.092894 0.024075 0.006286
v 0.093175 0.023754 0.000000
v 0.092894 0.024075 -0.006286
v 0.090274 0.027062 -0.011976
v 0.085715 0.032261 -0.012572
v 0.081985 0.036514 -0.009799
v 0.078536 0.040447 -0.006286
v 0.090769 0.048629 0.000000
v 0.092051 0.047480 0.003681
v 0.094332 0.045435 0.005738
v 0.096798 0.043224 0.007362
v 0.099813 0.040521 0.007013
v 0.101546 0.038968 0.003681
v 0.101732 0.038801 0.000000
v 0.101546 0.038968 -0.003681
v 0.099813 0.040521 -0.007013
v 0.096798 0.043224 -0.007362
v 0.094332 0.045435 -0.005738
v 0.092051 0.047480 -0.003681
v 0.105273 0.056287 0.000000
v 0.105532 0.056106 0.000675
v 0.105992 0.055784 0.001052
v 0.106490 0.055435 0.001350
v 0.107098 0.055009 0.001286
v 0.107447 0.054764 0.000675
v 0.107485 0.054738 0.000000
v 0.107447 0.054764 -0.000675
v 0.107098 0.055009 -0.001286
v 0.106490 0.055435 -0.001350
v 0.105992 0.055784 -0.001052
v 0.105532 0.056106 -0.000675
v -0.106490 0.055435 0.000000
v 0.106490 0.055435 0.000000
vt 0.000000 0.000000
vt 0.000000 0.083333
vt 0.000000 0.166667
vt 0.000000 0.250000
vt 0.000000 0.333333
vt 0.000000 0.416667
vt 0.000000 0.500000
vt 0.000000 0.583333
vt 0.000000 0.666667
vt 0.000000 0.750000
vt 0.000000 0.833333
vt 0.000000 0.916667
vt 0.062500 0.000000
vt 0.062500 0.083333
vt 0.062500 0.166667
vt 0.062500 0.250000
vt 0.062500 0.333333
vt 0.062500 0.416667
vt 0.062500 0.500000
vt 0.062500 0.583333
vt 0.062500 0.666667
vt 0.062500 0.750000
vt 0.062500 0.833333
vt 0.062500 0.916667
vt 0.125000 0.000000
vt 0.125000 0.083333
vt 0.125000 0.166667
vt 0.125000 0.250000
vt 0.125000 0.333333
vt 0.125000 0.416667
vt 0.125000 0.500000
vt 0.125000 0.583333
vt 0.125000 0.666667
vt 0.125000 0.750000
vt 0.125000 0.833333
vt 0.125000 0.916667
vt 0.187500 0.000000
vt 0.187500 0.083333
vt 0.187500 0.166667
vt 0.187500 0.250000
vt 0.187500 0.333333
vt 0.187500 0.416667
vt 0.187500 0.500000
vt 0.187500 0.583333
vt 0.187500 0.666667
vt 0.187500 0.750000
vt 0.187500 0.833333
vt 0.187500 0.916667
vt 0.250000 0.000000
vt 0.250000 0.083333
vt 0.250000 0.166667
vt 0.250000 0.250000
vt 0.250000 0.333333
vt 0.250000 0.416667
vt 0.250000 0.500000
vt 0.250000 0.583333
vt 0.250000 0.666667
vt 0.250000 0.750000
vt 0.250000 0.833333
vt 0.250000 0.916667
vt 0.312500 0.000000
vt 0.312500 0.083333
vt 0.312500 0.166667
vt 0.312500 0.250000
vt 0.312500 0.333333
vt 0.312500 0.416667
vt 0.312500 0.500000
vt 0.312500 0.583333
vt 0.312500 0.666667
vt 0.312500 0.750000
vt 0.312500 0.833333
vt 0.312500 0.916667
vt 0.375000 0.000000
vt 0.375000 0.083333
vt 0.375000 0.166667
vt 0.375000 0.250000
vt 0.375000 0.333333
vt 0.375000 0.416667
vt 0.375000 0.500000
vt 0.375000 0.583333
vt 0.375000 0.666667
vt 0.375000 0.750000
vt 0.375000 0.833333
vt 0.375000 0.916667
vt 0.437500 0.000000
vt 0.437500 0.083333
vt 0.437500 0.166667
vt 0.437500 0.250000
vt 0.437500 0.333333
vt 0.437500 0.416667
vt 0.437500 0.500000
vt 0.437500 0.583333
vt 0.437500 0.666667
vt 0.437500 0.750000
vt 0.437500 0.833333
vt 0.437500 0.916667
vt 0.500000 0.000000
vt 0.500000 0.083333
vt 0.500000 0.166667
vt 0.500000 0.250000
vt 0.500000 0.333333
vt 0.500000 0.416667
vt 0.500000 0.500000
vt 0.500000 0.583333
vt 0.500000 0.666667
vt 0.500000 0.750000
vt 0.500000 0.833333
vt 0.500000 0.916667
vt 0.562500 0.000000
vt 0.562500 0.083333
vt 0.562500 0.166667
vt 0.562500 0.250000
vt 0.562500 0.333333
vt 0.562500 0.416667
vt 0.562500 0.500000
vt 0.562500 0.583333
vt 0.562500 0.666667
vt 0.562500 0.750000
vt 0.562500 0.833333
vt 0.562500 0.916667
vt 0.625000 0.000000
vt 0.625000 0.083333
vt 0.625000 0.166667
vt 0.625000 0.250000
vt 0.625000 0.333333
vt 0.625000 0.416667
vt 0.625000 0.500000
vt 0.625000 0.583333
vt 0.625000 0.666667
vt 0.625000 0.750000
vt 0.625000 0.833333
vt 0.625000 0.916667
vt 0.687500 0.000000
vt 0.687500 0.083333
vt 0.687500 0.166667
vt 0.687500 0.250000
vt 0.687500 0.333333
vt 0.687500 0.416667
vt 0.687500 0.500000
vt 0.687500 0.583333
vt 0.687500 0.666667
vt 0.687500 0.750000
vt 0.687500 0.833333
vt 0.687500 0.916667
vt 0.750000 0.000000
vt 0.750000 0.083333
vt 0.750000 0.166667
vt 0.750000 0.250000
vt 0.750000 0.333333
vt 0.750000 0.416667
vt 0.750000 0.500000
vt 0.750000 0.583333
vt 0.750000 0.666667
vt 0.750000 0.750000
vt 0.750000 0.833333
vt 0.750000 0.916667
vt 0.812500 0.000000
vt 0.812500 0.083333
vt 0.812500 0.166667
vt 0.812500 0.250000
vt 0.812500 0.333333
vt 0.812500 0.416667
vt 0.812500 0.500000
vt 0.812500 0.583333
vt 0.812500 0.666667
vt 0.812500 0.750000
vt 0.812500 0.833333
vt 0.812500 0.916667
vt 0.875000 0.000000
vt 0.875000 0.083333
vt 0.875000 0.166667
vt 0.875000 0.250000
vt 0.875000 0.333333
vt 0.875000 0.416667
vt 0.875000 0.500000
vt 0.875000 0.583333
vt 0.875000 0.666667
vt 0.875000 0.750000
vt 0.875000 0.833333
vt 0.875000 0.916667
vt 0.937500 0.000000
vt 0.937500 0.083333
vt 0.937500 0.166667
vt 0.937500 0.250000
vt 0.937500 0.333333
vt 0.937500 0.416667
vt 0.937500 0.500000
vt 0.937500 0.583333
vt 0.937500 0.666667
vt 0.937500 0.750000
vt 0.937500 0.833333
vt 0.937500 0.916667
vt 1.000000 0.000000
vt 1.000000 0.083333
vt 1.000000 0.166667
vt 1.000000 0.250000
vt 1.000000 0.333333
vt 1.000000 0.416667
vt 1.000000 0.500000
vt 1.000000 0.583333
vt 1.000000 0.666667
vt 1.000000 0.750000
vt 1.000000 0.833333
vt 1.000000 0.916667
vt 0.000000 0.500000
vt 1.000000 0.500000
vn 0.819152 0.573576 0.000000
vn 0.709406 0.496732 0.500000
vn 0.409576 0.286788 0.866025
vn 0.000000 0.000000 1.000000
vn -0.409576 -0.286788 0.866025
vn -0.709406 -0.496732 0.500000
vn -0.819152 -0.573576 0.000000
vn -0.709406 -0.496732 -0.500000
vn -0.409576 -0.286788 -0.866025
vn -0.000000 -0.000000 -1.000000
vn 0.409576 0.286788 -0.866025
vn 0.709406 0.496732 -0.500000
vn 0.744603 0.667508 0.000000
vn 0.644845 0.578079 0.500000
vn 0.372301 0.333754 0.866025
vn 0.000000 0.000000 1.000000
vn -0.372301 -0.333754 0.866025
vn -0.644845 -0.578079 0.500000
vn -0.744603 -0.667508 0.000000
vn -0.644845 -0.578079 -0.500000
vn -0.372301 -0.333754 -0.866025
vn -0.000000 -0.000000 -1.000000
vn 0.372301 0.333754 -0.866025
vn 0.644845 0.578079 -0.500000
vn 0.659346 0.751840 0.000000
vn 0.571010 0.651112 0.500000
vn 0.329673 0.375920 0.866025
vn 0.000000 0.000000 1.000000
vn -0.329673 -0.375920 0.866025
vn -0.571010 -0.651112 0.500000
vn -0.659346 -0.751840 0.000000
vn -0.571010 -0.651112 -0.500000
vn -0.329673 -0.375920 -0.866025
vn -0.000000 -0.000000 -1.000000
vn 0.329673 0.375920 -0.866025
vn 0.571010 0.651112 -0.500000
vn 0.564607 0.825360 0.000000
vn 0.488964 0.714783 0.500000
vn 0.282303 0.412680 0.866025
vn 0.000000 0.000000 1.000000
vn -0.282303 -0.412680 0.866025
vn -0.488964 -0.714783 0.500000
vn -0.564607 -0.825360 0.000000
vn -0.488964 -0.714783 -0.500000
vn -0.282303 -0.412680 -0.866025
vn -0.000000 -0.000000 -1.000000
vn 0.282303 0.412680 -0.866025
vn 0.488964 0.714783 -0.500000
vn 0.461749 0.887011 0.000000
vn 0.399886 0.768174 0.500000
vn 0.230874 0.443505 0.866025
vn 0.000000 0.000000 1.000000
vn -0.230874 -0.443505 0.866025
vn -0.399886 -0.768174 0.500000
vn -0.461749 -0.887011 0.000000
vn -0.399886 -0.768174 -0.500000
vn -0.230874 -0.443505 -0.866025
vn -0.000000 -0.000000 -1.000000
vn 0.230874 0.443505 -0.866025
vn 0.399886 0.768174 -0.500000
vn 0.352250 0.935906 0.000000
vn 0.305057 0.810518 0.500000
vn 0.176125 0.467953 0.866025
vn 0.000000 0.000000 1.000000
vn -0.176125 -0.467953 0.866025
vn -0.305057 -0.810518 0.500000
vn -0.352250 -0.935906 0.000000
vn -0.305057 -0.810518 -0.500000
vn -0.176125 -0.467953 -0.866025
vn -0.000000 -0.000000 -1.000000
vn 0.176125 0.467953 -0.866025
vn 0.305057 0.810518 -0.500000
vn 0.237686 0.971342 0.000000
vn 0.205842 0.841207 0.500000
vn 0.118843 0.485671 0.866025
vn 0.000000 0.000000 1.000000
vn -0.118843 -0.485671 0.866025
vn -0.205842 -0.841207 0.500000
vn -0.237686 -0.971342 0.000000
vn -0.205842 -0.841207 -0.500000
vn -0.118843 -0.485671 -0.866025
vn -0.000000 -0.000000 -1.000000
vn 0.118843 0.485671 -0.866025
vn 0.205842 0.841207 -0.500000
vn 0.119704 0.992810 0.000000
vn 0.103666 0.859798 0.500000
vn 0.059852 0.496405 0.866025
vn 0.000000 0.000000 1.000000
vn -0.059852 -0.496405 0.866025
vn -0.103666 -0.859798 0.500000
vn -0.119704 -0.992810 0.000000
vn -0.103666 -0.859798 -0.500000
vn -0.059852 -0.496405 -0.866025
vn -0.000000 -0.000000 -1.000000
vn 0.059852 0.496405 -0.866025
vn 0.103666 0.859798 -0.500000
vn 0.000000 1.000000 0.000000
vn 0.000000 0.866025 0.500000
vn 0.000000 0.500000 0.866025
vn 0.000000 0.000000 1.000000
vn 0.000000 -0.500000 0.866025
vn 0.000000 -0.866025 0.500000
vn 0.000000 -1.000000 0.000000
vn 0.000000 -0.866025 -0.500000
vn 0.000000 -0.500000 -0.866025
vn 0.000000 -0.000000 -1.000000
vn -0.000000 0.500000 -0.866025
vn -0.000000 0.866025 -0.500000
vn -0.119704 0.992810 0.000000
vn -0.103666 0.859798 0.500000
vn -0.059852 0.496405 0.866025
vn -0.000000 0.000000 1.000000
vn 0.059852 -0.496405 0.866025
vn 0.103666 -0.859798 0.500000
vn 0.119704 -0.992810 0.000000
vn 0.103666 -0.859798 -0.500000
vn 0.059852 -0.496405 -0.866025
vn 0.000000 -0.000000 -1.000000
vn -0.059852 0.496405 -0.866025
vn -0.103666 0.859798 -0.500000
vn -0.237686 0.971342 0.000000
vn -0.205842 0.841207 0.500000
vn -0.118843 0.485671 0.866025
vn -0.000000 0.000000 1.000000
vn 0.118843 -0.485671 0.866025
vn 0.205842 -0.841207 0.500000
vn 0.237686 -0.971342 0.000000
vn 0.205842 -0.841207 -0.500000
vn 0.118843 -0.485671 -0.866025
vn 0.000000 -0.000000 -1.000000
vn -0.118843 0.485671 -0.866025
vn -0.205842 0.841207 -0.500000
vn -0.352250 0.935906 0.000000
vn -0.305057 0.810518 0.500000
vn -0.176125 0.467953 0.866025
vn -0.000000 0.000000 1.000000
vn 0.176125 -0.467953 0.866025
vn 0.305057 -0.810518 0.500000
vn 0.352250 -0.935906 0.000000
vn 0.305057 -0.810518 -0.500000
vn 0.176125 -0.467953 -0.866025
vn 0.000000 -0.000000 -1.000000
vn -0.176125 0.467953 -0.866025
vn -0.305057 0.810518 -0.500000
vn -0.461749 0.887011 0.000000
vn -0.399886 0.768174 0.500000
vn -0.230874 0.443505 0.866025
vn -0.000000 0.000000 1.000000
vn 0.230874 -0.443505 0.866025
vn 0.399886 -0.768174 0.500000
vn 0.461749 -0.887011 0.000000
vn 0.399886 -0.768174 -0.500000
vn 0.230874 -0.443505 -0.866025
vn 0.000000 -0.000000 -1.000000
vn -0.230874 0.443505 -0.866025
vn -0.399886 0.768174 -0.500000
vn -0.564607 0.825360 0.000000
vn -0.488964 0.714783 0.500000
vn -0.282303 0.412680 0.866025
vn -0.000000 0.000000 1.000000
vn 0.282303 -0.412680 0.866025
vn 0.488964 -0.714783 0.500000
vn 0.564607 -0.825360 0.000000
vn 0.488964 -0.714783 -0.500000
vn 0.282303 -0.412680 -0.866025
vn 0.000000 -0.000000 -1.000000
vn -0.282303 0.412680 -0.866025
vn -0.488964 0.714783 -0.500000
vn -0.659346 0.751840 0.000000
vn -0.571010 0.651112 0.500000
vn -0.329673 0.375920 0.866025
vn -0.000000 0.000000 1.000000
vn 0.329673 -0.375920 0.866025
vn 0.571010 -0.651112 0.500000
vn 0.659346 -0.751840 0.000000
vn 0.571010 -0.651112 -0.500000
vn 0.329673 -0.375920 -0.866025
vn 0.000000 -0.000000 -1.000000
vn -0.329673 0.375920 -0.866025
vn -0.571010 0.651112 -0.500000
vn -0.744603 0.667508 0.000000
vn -0.644845 0.578079 0.500000
vn -0.372301 0.333754 0.866025
vn -0.000000 0.000000 1.000000
vn 0.372301 -0.333754 0.866025
vn 0.644845 -0.578079 0.500000
vn 0.744603 -0.667508 0.000000
vn 0.644845 -0.578079 -0.500000
vn 0.372301 -0.333754 -0.866025
vn 0.000000 -0.000000 -1.000000
vn -0.372301 0.333754 -0.866025
vn -0.644845 0.578079 -0.500000
vn -0.819152 0.573576 0.000000
vn -0.709406 0.496732 0.500000
vn -0.409576 0.286788 0.866025
vn -0.000000 0.000000 1.000000
vn 0.409576 -0.286788 0.866025
vn 0.709406 -0.496732 0.500000
vn 0.819152 -0.573576 0.000000
vn 0.709406 -0.496732 -0.500000
vn 0.409576 -0.286788 -0.866025
vn 0.000000 -0.000000 -1.000000
vn -0.409576 0.286788 -0.866025
vn -0.709406 0.496732 -0.500000
vn -1.000000 0.000000 0.000000
vn 1.000000 0.000000 0.000000
s 1
f 1/1/1 2/2/2 14/14/14
f 1/1/1 14/14/14 13/13/13
f 2/2/2 3/3/3 15/15/15
f 2/2/2 15/15/15 14/14/14
f 3/3/3 4/4/4 16/16/16
f 3/3/3 16/16/16 15/15/15
f 4/4/4 5/5/5 17/17/17
f 4/4/4 17/17/17 16/16/16
f 5/5/5 6/6/6 18/18/18
f 5/5/5 18/18/18 17/17/17
f 6/6/6 7/7/7 19/19/19
f 6/6/6 19/19/19 18/18/18
f 7/7/7 8/8/8 20/20/20
f 7/7/7 20/20/20 19/19/19
f 8/8/8 9/9/9 21/21/21
f 8/8/8 21/21/21 20/20/20
f 9/9/9 10/10/10 22/22/22
f 9/9/9 22/22/22 21/21/21
f 10/10/10 11/11/11 23/23/23
f 10/10/10 23/23/23 22/22/22
f 11/11/11 12/12/12 24/24/24
f 11/11/11 24/24/24 23/23/23
f 12/12/12 1/1/1 13/13/13
f 12/12/12 13/13/13 24/24/24
f 13/13/13 14/14/14 26/26/26
f 13/13/13 26/26/26 25/25/25
f 14/14/14 15/15/15 27/27/27
f 14/14/14 27/27/27 26/26/26
f 15/15/15 16/16/16 28/28/28
f 15/15/15 28/28/28 27/27/27
f 16/16/16 17/17/17 29/29/29
f 16/16/16 29/29/29 28/28/28
f 17/17/17 18/18/18 30/30/30
f 17/17/17 30/30/30 29/29/29
f 18/18/18 19/19/19 31/31/31
f 18/18/18 31/31/31 30/30/30
f 19/19/19 20/20/20 32/32/32
f 19/19/19 32/32/32 31/31/31
f 20/20/20 21/21/21 33/33/33
f 20/20/20 33/33/33 32/32/32
f 21/21/21 22/22/22 34/34/34
f 21/21/21 34/34/34 33/33/33
f 22/22/22 23/23/23 35/35/35
f 22/22/22 35/35/35 34/34/34
f 23/23/23 24/24/24 36/36/36
f 23/23/23 36/36/36 35/35/35
f 24/24/24 13/13/13 25/25/25
f 24/24/24 25/25/25 36/36/36
f 25/25/25 26/26/26 38/38/38
f 25/25/25 38/38/38 37/37/37
f 26/26/26 27/27/27 39/39/39
f 26/26/26 39/39/39 38/38/38
f 27/27/27 28/28/28 40/40/40
f 27/27/27 40/40/40 39/39/39
f 28/28/28 29/29/29 41/41/41
f 28/28/28 41/41/41 40/40/40
f 29/29/29 30/30/30 42/42/42
f 29/29/29 42/42/42 41/41/41
f 30/30/30 31/31/31 43/43/43
f 30/30/30 43/43/43 42/42/42
f 31/31/31 32/32/32 44/44/44
f 31/31/31 44/44/44 43/43/43
f 32/32/32 33/33/33 45/45/45
f 32/32/32 45/45/45 44/44/44
f 33/33/33 34/34/34 46/46/46
f 33/33/33 46/46/46 45/45/45
f 34/34/34 35/35/35 47/47/47
f 34/34/34 47/47/47 46/46/46
f 35/35/35 36/36/36 48/48/48
f 35/35/35 48/48/48 47/47/47
f 36/36/36 25/25/25 37/37/37
f 36/36/36 37/37/37 48/48/48
f 37/37/37 38/38/38 50/50/50
f 37/37/37 50/50/50 49/49/49
f 38/38/38 39/39/39 51/51/51
f 38/38/38 51/51/51 50/50/50
f 39/39/39 40/40/40 52/52/52
f 39/39/39 52/52/52 51/51/51
f 40/40/40 41/41/41 53/53/53
f 40/40/40 53/53/53 52/52/52
f 41/41/41 42/42/42 54/54/54
f 41/41/41 54/54/54 53/53/53
f 42/42/42 43/43/43 55/55/55
f 42/42/42 55/55/55 54/54/54
f 43/43/43 44/44/44 56/56/56
f 43/43/43 56/56/56 55/55/55
f 44/44/44 45/45/45 57/57/57
f 44/44/44 57/57/57 56/56/56
f 45/45/45 46/46/46 58/58/58
f 45/45/45 58/58/58 57/57/57
f 46/46/46 47/47/47 59/59/59
f 46/46/46 59/59/59 58/58/58
f 47/47/47 48/48/48 60/60/60
f 47/47/47 60/60/60 59/59/59
f 48/48/48 37/37/37 49/49/49
f 48/48/48 49/49/49 60/60/60
f 49/49/49 50/50/50 62/62/62
f 49/49/49 62/62/62 61/61/61
f 50/50/50 51/51/51 63/63/63
f 50/50/50 63/63/63 62/62/62
f 51/51/51 52/52/52 64/64/64
f 51/51/51 64/64/64 63/63/63
f 52/52/52 53/53/53 65/65/65
f 52/52/52 65/65/65 64/64/64
f 53/53/53 54/54/54 66/66/66
f 53/53/53 66/66/66 65/65/65
f 54/54/54 55/55/55 67/67/67
f 54/54/54 67/67/67 66/66/66
f 55/55/55 56/56/56 68/68/68
f 55/55/55 68/68/68 67/67/67
f 56/56/56 57/57/57 69/69/69
f 56/56/56 69/69/69 68/68/68
f 57/57/57 58/58/58 70/70/70
f 57/57/57 70/70/70 69/69/69
f 58/58/58 59/59/59 71/71/71
f 58/58/58 71/71/71 70/70/70
f 59/59/59 60/60/60 72/72/72
f 59/59/59 72/72/72 71/71/71
f 60/60/60 49/49/49 61/61/61
f 60/60/60 61/61/61 72/72/72
f 61/61/61 62/62/62 74/74/74
f 61/61/61 74/74/74 73/73/73
f 62/62/62 63/63/63 75/75/75
f 62/62/62 75/75/75 74/74/74
f 63/63/63 64/64/64 76/76/76
f 63/63/63 76/76/76 75/75/75
f 64/64/64 65/65/65 77/77/77
f 64/64/64 77/77/77 76/76/76
f 65/65/65 66/66/66 78/78/78
f 65/65/65 78/78/78 77/77/77
f 66/66/66 67/67/67 79/79/79
f 66/66/66 79/79/79 78/78/78
f 67/67/67 68/68/68 80/80/80
f 67/67/67 80/80/80 79/79/79
f 68/68/68 69/69/69 81/81/81
f 68/68/68 81/81/81 80/80/80
f 69/69/69 70/70/70 82/82/82
f 69/69/69 82/82/82 81/81/81
f 70/70/70 71/71/71 83/83/83
f 70/70/70 83/83/83 82/82/82
f 71/71/71 72/72/72 84/84/84
f 71/71/71 84/84/84 83/83/83
f 72/72/72 61/61/61 73/73/73
f 72/72/72 73/73/73 84/84/84
f 73/73/73 74/74/74 86/86/86
f 73/73/73 86/86/86 85/85/85
f 74/74/74 75/75/75 87/87/87
f 74/74/74 87/87/87 86/86/86
f 75/75/75 76/76/76 88/88/88
f 75/75/75 88/88/88 87/87/87
f 76/76/76 77/77/77 89/89/89
f 76/76/76 89/89/89 88/88/88
f 77/77/77 78/78/78 90/90/90
f 77/77/77 90/90/90 89/89/89
f 78/78/78 79/79/79 91/91/91
f 78/78/78 91/91/91 90/90/90
f 79/79/79 80/80/80 92/92/92
f 79/79/79 92/92/92 91/91/91
f 80/80/80 81/81/81 93/93/93
f 80/80/80 93/93/93 92/92/92
f 81/81/81 82/82/82 94/94/94
f 81/81/81 94/94/94 93/93/93
f 82/82/82 83/83/83 95/95/95
f 82/82/82 95/95/95 94/94/94
f 83/83/83 84/84/84 96/96/96
f 83/83/83 96/96/96 95/95/95
f 84/84/84 73/73/73 85/85/85
f 84/84/84 85/85/85 96/96/96
f 85/85/85 86/86/86 98/98/98
f 85/85/85 98/98/98 97/97/97
f 86/86/86 87/87/87 99/99/99
f 86/86/86 99/99/99 98/98/98
f 87/87/87 88/88/88 100/100/100
f 87/87/87 100/100/100 99/99/99
f 88/88/88 89/89/89 101/101/101
f 88/88/88 101/101/101 100/100/100
f 89/89/89 90/90/90 102/102/102
f 89/89/89 102/102/102 101/101/101
f 90/90/90 91/91/91 103/103/103
f 90/90/90 103/103/103 102/102/102
f 91/91/91 92/92/92 104/104/104
f 91/91/91 104/104/104 103/103/103
f 92/92/92 93/93/93 105/105/105
f 92/92/92 105/105/105 104/104/104
f 93/93/93 94/94/94 106/106/106
f 93/93/93 106/106/106 105/105/105
f 94/94/94 95/95/95 107/107/107
f 94/94/94 107/107/107 106/106/106
f 95/95/95 96/96/96 108/108/108
f 95/95/95 108/108/108 107/107/107
f 96/96/96 85/85/85 97/97/97
f 96/96/96 97/97/97 108/108/108
f 97/97/97 98/98/98 110/110/110
f 97/97/97 110/110/110 109/109/109
f 98/98/98 99/99/99 111/111/111
f 98/98/98 111/111/111 110/110/110
f 99/99/99 100/100/100 112/112/112
f 99/99/99 112/112/112 111/111/111
f 100/100/100 101/101/101 113/113/113
f 100/100/100 113/113/113 112/112/112
f 101/101/101 102/102/102 114/114/114
f 101/101/101 114/114/114 113/113/113
f 102/102/102 103/103/103 115/115/115
f 102/102/102 115/115/115 114/114/114
f 103/103/103 104/104/104 116/116/116
f 103/103/103 116/116/116 115/115/115
f 104/104/104 105/105/105 117/117/117
f 104/104/104 117/117/117 116/116/116
f 105/105/105 106/106/106 118/118/118
f 105/105/105 118/118/118 117/117/117
f 106/106/106 107/107/107 119/119/119
f 106/106/106 119/119/119 118/118/118
f 107/107/107 108/108/108 120/120/120
f 107/107/107 120/120/120 119/119/119
f 108/108/108 97/97/97 109/109/109
f 108/108/108 109/109/109 120/120/120
f 109/109/109 110/110/110 122/122/122
f 109/109/109 122/122/122 121/121/121
f 110/110/110 111/111/111 123/123/123
f 110/110/110 123/123/123 122/122/122
f 111/111/111 112/112/112 124/124/124
f 111/111/111 124/124/124 123/123/123
f 112/112/112 113/113/113 125/125/125
f 112/112/112 125/125/125 124/124/124
f 113/113/113 114/114/114 126/126/126
f 113/113/113 126/126/126 125/125/125
f 114/114/114 115/115/115 127/127/127
f 114/114/114 127/127/127 126/126/126
f 115/115/115 116/116/116 128/128/128
f 115/115/115 128/128/128 127/127/127
f 116/116/116 117/117/117 129/129/129
f 116/116/116 129/129/129 128/128/128
f 117/117/117 118/118/118 130/130/130
f 117/117/117 130/130/130 129/129/129
f 118/118/118 119/119/119 131/131/131
f 118/118/118 131/131/131 130/130/130
f 119/119/119 120/120/120 132/132/132
f 119/119/119 132/132/132 131/131/131
f 120/120/120 109/109/109 121/121/121
f 120/120/120 121/121/121 132/132/132
f 121/121/121 122/122/122 134/134/134
f 121/121/121 134/134/134 133/133/133
f 122/122/122 123/123/123 135/135/135
f 122/122/122 135/135/135 134/134/134
f 123/123/123 124/124/124 136/136/136
f 123/123/123 136/136/136 135/135/135
f 124/124/124 125/125/125 137/137/137
f 124/124/124 137/137/137 136/136/136
f 125/125/125 126/126/126 138/138/138
f 125/125/125 138/138/138 137/137/137
f 126/126/126 127/127/127 139/139/139
f 126/126/126 139/139/139 138/138/138
f 127/127/127 128/128/128 140/140/140
f 127/127/127 140/140/140 139/139/139
f 128/128/128 129/129/129 141/141/141
f 128/128/128 141/141/141 140/140/140
f 129/129/129 130/130/130 142/142/142
f 129/129/129 142/142/142 141/141/141
f 130/130/130 131/131/131 143/143/143
f 130/130/130 143/143/143 142/142/142
f 131/131/131 132/132/132 144/144/144
f 131/131/131 144/144/144 143/143/143
f 132/132/132 121/121/121 133/133/133
f 132/132/132 133/133/133 144/144/144
f 133/133/133 134/134/134 146/146/146
f 133/133/133 146/146/146 145/145/145
f 134/134/134 135/135/135 147/147/147
f 134/134/134 147/147/147 146/146/146
f 135/135/135 136/136/136 148/148/148
f 135/135/135 148/148/148 147/147/147
f 136/136/136 137/137/137 149/149/149
f 136/136/136 149/149/149 148/148/148
f 137/137/137 138/138/138 150/150/150
f 137/137/137 150/150/150 149/149/149
f 138/138/138 139/139/139 151/151/151
f 138/138/138 151/151/151 150/150/150
f 139/139/139 140/140/140 152/152/152
f 139/139/139 152/152/152 151/151/151
f 140/140/140 141/141/141 153/153/153
f 140/140/140 153/153/153 152/152/152
f 141/141/141 142/142/142 154/154/154
f 141/141/141 154/154/154 153/153/153
f 142/142/142 143/143/143 155/155/155
f 142/142/142 155/155/155 154/154/154
f 143/143/143 144/144/144 156/156/156
f 143/143/143 156/156/156 155/155/155
f 144/144/144 133/133/133 145/145/145
f 144/144/144 145/145/145 156/156/156
f 145/145/145 146/146/146 158/158/158
f 145/145/145 158/158/158 157/157/157
f 146/146/146 147/147/147 159/159/159
f 146/146/146 159/159/159 158/158/158
f 147/147/147 148/148/148 160/160/160
f 147/147/147 160/160/160 159/159/159
f 148/148/148 149/149/149 161/161/161
f 148/148/148 161/161/161 160/160/160
f 149/149/149 150/150/150 162/162/162
f 149/149/149 162/162/162 161/161/161
f 150/150/150 151/151/151 163/163/163
f 150/150/150 163/163/163 162/162/162
f 151/151/151 152/152/152 164/164/164
f 151/151/151 164/164/164 163/163/163
f 152/152/152 153/153/153 165/165/165
f 152/152/152 165/165/165 164/164/164
f 153/153/153 154/154/154 166/166/166
f 153/153/153 166/166/166 165/165/165
f 154/154/154 155/155/155 167/167/167
f 154/154/154 167/167/167 166/166/166
f 155/155/155 156/156/156 168/168/168
f 155/155/155 168/168/168 167/167/167
f 156/156/156 145/145/145 157/157/157
f 156/156/156 157/157/157 168/168/168
f 157/157/157 158/158/158 170/170/170
f 157/157/157 170/170/170 169/169/169
f 158/158/158 159/159/159 171/171/171
f 158/158/158 171/171/171 170/170/170
f 159/159/159 160/160/160 172/172/172
f 159/159/159 172/172/172 171/171/171
f 160/160/160 161/161/161 173/173/173
f 160/160/160 173/173/173 172/172/172
f 161/161/161 162/162/162 174/174/174
f 161/161/161 174/174/174 173/173/173
f 162/162/162 163/163/163 175/175/175
f 162/162/162 175/175/175 174/174/174
f 163/163/163 164/164/164 176/176/176
f 163/163/163 176/176/176 175/175/175
f 164/164/164 165/165/165 177/177/177
f 164/164/164 177/177/177 176/176/176
f 165/165/165 166/166/166 178/178/178
f 165/165/165 178/178/178 177/177/177
f 166/166/166 167/167/167 179/179/179
f 166/166/166 179/179/179 178/178/178
f 167/167/167 168/168/168 180/180/180
f 167/167/167 180/180/180 179/179/179
f 168/168/168 157/157/157 169/169/169
f 168/168/168 169/169/169 180/180/180
f 169/169/169 170/170/170 182/182/182
f 169/169/169 182/182/182 181/181/181
f 170/170/170 171/171/171 183/183/183
f 170/170/170 183/183/183 182/182/182
f 171/171/171 172/172/172 184/184/184
f 171/171/171 184/184/184 183/183/183
f 172/172/172 173/173/173 185/185/185
f 172/172/172 185/185/185 184/184/184
f 173/173/173 174/174/174 186/186/186
f 173/173/173 186/186/186 185/185/185
f 174/174/174 175/175/175 187/187/187
f 174/174/174 187/187/187 186/186/186
f 175/175/175 176/176/176 188/188/188
f 175/175/175 188/188/188 187/187/187
f 176/176/176 177/177/177 189/189/189
f 176/176/176 189/189/189 188/188/188
f 177/177/177 178/178/178 190/190/190
f 177/177/177 190/190/190 189/189/189
f 178/178/178 179/179/179 191/191/191
f 178/178/178 191/191/191 190/190/190
f 179/179/179 180/180/180 192/192/192
f 179/179/179 192/192/192 191/191/191
f 180/180/180 169/169/169 181/181/181
f 180/180/180 181/181/181 192/192/192
f 181/181/181 182/182/182 194/194/194
f 181/181/181 194/194/194 193/193/193
f 182/182/182 183/183/183 195/195/195
f 182/182/182 195/195/195 194/194/194
f 183/183/183 184/184/184 196/196/196
f 183/183/183 196/196/196 195/195/195
f 184/184/184 185/185/185 197/197/197
f 184/184/184 197/197/197 196/196/196
f 185/185/185 186/186/186 198/198/198
f 185/185/185 198/198/198 197/197/197
f 186/186/186 187/187/187 199/199/199
f 186/186/186 199/199/199 198/198/198
f 187/187/187 188/188/188 200/200/200
f 187/187/187 200/200/200 199/199/199
f 188/188/188 189/189/189 201/201/201
f 188/188/188 201/201/201 200/200/200
f 189/189/189 190/190/190 202/202/202
f 189/189/189 202/202/202 201/201/201
f 190/190/190 191/191/191 203/203/203
f 190/190/190 203/203/203 202/202/202
f 191/191/191 192/192/192 204/204/204
f 191/191/191 204/204/204 203/203/203
f 192/192/192 181/181/181 193/193/193
f 192/192/192 193/193/193 204/204/204
f 205/205/205 2/2/2 1/1/1
f 205/205/205 3/3/3 2/2/2
f 205/205/205 4/4/4 3/3/3
f 205/205/205 5/5/5 4/4/4
f 205/205/205 6/6/6 5/5/5
f 205/205/205 7/7/7 6/6/6
f 205/205/205 8/8/8 7/7/7
f 205/205/205 9/9/9 8/8/8
f 205/205/205 10/10/10 9/9/9
f 205/205/205 11/11/11 10/10/10
f 205/205/205 12/12/12 11/11/11
f 205/205/205 1/1/1 12/12/12
f 193/193/193 194/194/194 206/206/206
f 194/194/194 195/195/195 206/206/206
f 195/195/195 196/196/196 206/206/206
f 196/196/196 197/197/197 206/206/206
f 197/197/197 198/198/198 206/206/206
f 198/198/198 199/199/199 206/206/206
f 199/199/199 200/200/200 206/206/206
f 200/200/200 201/201/201 206/206/206
f 201/201/201 202/202/202 206/206/206
f 202/202/202 203/203/203 206/206/206
f 203/203/203 204/204/204 206/206/206
f 204/204/204 193/193/193 206/206/206
